<svg id="Ebene_1" data-name="Ebene 1" xmlns="http://www.w3.org/2000/svg" viewBox="0 0 13.69 12.76"><path d="M11.22,12.13H2.47V6.74L6.85,3l4.37,3.78ZM7.05,2.31a.32.32,0,0,0-.41,0L2,6.36a.3.3,0,0,0-.11.23v5.85a.32.32,0,0,0,.32.32h9.38a.31.31,0,0,0,.3-.32V6.59a.29.29,0,0,0-.1-.23ZM13.47,5.5,7.25.15a.62.62,0,0,0-.81,0L.22,5.5a.63.63,0,0,0-.07.88A.63.63,0,0,0,1,6.45l5.82-5,5.81,5a.65.65,0,0,0,.88-.07.63.63,0,0,0-.07-.88" style="fill:#fff"/><path d="M7.33,5.64h0a.87.87,0,0,1,.82-.46l-.32.61a.36.36,0,0,0,.63.33l.32-.61a.85.85,0,0,1,.09.93.86.86,0,0,1-.73.46L6.33,10.39a.88.88,0,0,1,0,.86.9.9,0,0,1-.82.47l.32-.62a.36.36,0,0,0-.63-.33l-.32.62A.86.86,0,0,1,5.56,10L7.37,6.51a.9.9,0,0,1,0-.87" style="fill:#fff"/><rect x="6.15" y="5.46" width="0.49" height="0.52" transform="translate(-2 3.96) rotate(-29.96)" style="fill:#fff"/><rect x="4.46" y="6.43" width="0.49" height="0.52" transform="translate(-2.71 3.25) rotate(-29.96)" style="fill:#fff"/><rect x="6.87" y="6.06" width="0.53" height="5.87" transform="translate(-3.54 4.76) rotate(-29.97)" style="fill:#fff"/><path d="M5.19,6.91,6.3,6.27a.16.16,0,0,0,0-.21l-.27-.48a.16.16,0,0,0-.21,0l-1.11.64a.16.16,0,0,0-.06.21L5,6.85a.15.15,0,0,0,.21.06" style="fill:#fff"/><path d="M6.65,6.07l.28-.16A.18.18,0,0,0,7,5.67l-.25-.44a.18.18,0,0,0-.24-.07l-.28.17a.17.17,0,0,0-.07.23L6.41,6a.18.18,0,0,0,.24.06" style="fill:#fff"/><path d="M4.41,7.23l.48-.17a.09.09,0,0,0,.05-.12l-.33-.57a.09.09,0,0,0-.13,0l-.39.33a.09.09,0,0,0,0,.11l.24.4a.08.08,0,0,0,.1,0" style="fill:#fff"/><path d="M8.49,11.76l.33-.19a.2.2,0,0,0,.08-.27L8.05,9.85a.18.18,0,0,0-.26-.07L7.45,10a.2.2,0,0,0-.07.27l.84,1.45a.19.19,0,0,0,.27.07" style="fill:#fff"/></svg>