<svg viewBox="0 0 7.67 12.76" xmlns="http://www.w3.org/2000/svg"><path d="m4.09 11.42a.3.3 0 0 1 -.26.14.3.3 0 0 1 -.25-.14c-.76 0-1.16.29-1.19.39s.52.38 1.46.38 1.43-.28 1.47-.39-.44-.34-1.19-.38z" fill="#fff"/><path d="m3.83 2.26a1.47 1.47 0 1 0 1.47 1.46 1.47 1.47 0 0 0 -1.47-1.46z" fill="none"/><g fill="#fff"><path d="m4.09 11.42a.3.3 0 0 1 -.26.14.3.3 0 0 1 -.25-.14c-.76 0-1.16.29-1.19.39s.52.38 1.46.38 1.43-.28 1.47-.39-.44-.34-1.19-.38z"/><path d="m3.83 0a3.84 3.84 0 0 0 -3.83 3.83 4 4 0 0 0 .11.91 5.48 5.48 0 0 0 .42 1.49c.37.79 2 3.4 2.69 4.59-1 .13-1.44.55-1.44.95s.64 1 2.05 1 2.06-.51 2.06-1-.46-.82-1.44-.95c.73-1.19 2.31-3.82 2.69-4.59a5.48 5.48 0 0 0 .42-1.49 4 4 0 0 0 .11-.91 3.84 3.84 0 0 0 -3.84-3.83zm0 5.19a1.47 1.47 0 1 1 1.47-1.47 1.47 1.47 0 0 1 -1.47 1.47zm1.47 6.58c0 .11-.54.39-1.47.39s-1.43-.28-1.46-.38.43-.34 1.19-.39a.3.3 0 0 0 .25.14.3.3 0 0 0 .26-.14c.79.04 1.19.28 1.23.38z"/></g></svg>