<svg id="wirkungskette-mobile-svg" xmlns="http://www.w3.org/2000/svg" xmlns:xlink="http://www.w3.org/1999/xlink" viewBox="0 0 199.67 4139">
<g id="path">
<polygon points="84.46 4027.19 100.33 4043.06 116.2 4027.19 116.2 4040.65 100.33 4056.52 84.46 4040.65 84.46 4027.19" style="fill:#ff9f37"/>
<polygon points="84.46 3998.62 100.33 4014.49 116.2 3998.62 116.2 4012.08 100.33 4027.95 84.46 4012.08 84.46 3998.62" style="fill:#ff9f37"/>
<polygon points="84.46 3970.06 100.33 3985.93 116.2 3970.06 116.2 3983.52 100.33 3999.39 84.46 3983.52 84.46 3970.06" style="fill:#ff9f37"/>
<polygon points="84.46 3941.49 100.33 3957.36 116.2 3941.49 116.2 3954.95 100.33 3970.82 84.46 3954.95 84.46 3941.49" style="fill:#ff9f37"/>
<polygon points="84.46 3912.93 100.33 3928.8 116.2 3912.93 116.2 3926.39 100.33 3942.26 84.46 3926.39 84.46 3912.93" style="fill:#ff9f37"/>
<polygon points="84.46 3884.36 100.33 3900.23 116.2 3884.36 116.2 3897.82 100.33 3913.69 84.46 3897.82 84.46 3884.36" style="fill:#ff9f37"/>
<polygon points="84.46 3855.8 100.33 3871.66 116.2 3855.8 116.2 3869.26 100.33 3885.13 84.46 3869.26 84.46 3855.8" style="fill:#ff9f37"/>
<polygon points="84.46 3827.23 100.33 3843.1 116.2 3827.23 116.2 3840.69 100.33 3856.56 84.46 3840.69 84.46 3827.23" style="fill:#ff9f37"/>
<polygon points="84.46 3798.67 100.33 3814.53 116.2 3798.67 116.2 3812.13 100.33 3828 84.46 3812.13 84.46 3798.67" style="fill:#ff9f37"/>
<polygon points="84.46 3770.1 100.33 3785.97 116.2 3770.1 116.2 3783.56 100.33 3799.43 84.46 3783.56 84.46 3770.1" style="fill:#ff9f37"/>
<polygon points="84.46 3741.53 100.33 3757.4 116.2 3741.53 116.2 3755 100.33 3770.87 84.46 3755 84.46 3741.53" style="fill:#ff9f37"/>
<polygon points="84.46 3712.97 100.33 3728.84 116.2 3712.97 116.2 3726.43 100.33 3742.3 84.46 3726.43 84.46 3712.97" style="fill:#ff9f37"/>
<polygon points="84.46 3684.4 100.33 3700.27 116.2 3684.4 116.2 3697.86 100.33 3713.74 84.46 3697.86 84.46 3684.4" style="fill:#ff9f37"/>
<polygon points="84.46 3655.84 100.33 3671.71 116.2 3655.84 116.2 3669.3 100.33 3685.17 84.46 3669.3 84.46 3655.84" style="fill:#ff9f37"/>
<polygon points="84.46 3627.27 100.33 3643.14 116.2 3627.27 116.2 3640.73 100.33 3656.61 84.46 3640.73 84.46 3627.27" style="fill:#ff9f37"/>
<polygon points="84.46 3598.71 100.33 3614.58 116.2 3598.71 116.2 3612.17 100.33 3628.04 84.46 3612.17 84.46 3598.71" style="fill:#ff9f37"/>
<polygon points="84.46 3570.14 100.33 3586.01 116.2 3570.14 116.2 3583.6 100.33 3599.47 84.46 3583.6 84.46 3570.14" style="fill:#ff9f37"/>
<polygon points="84.46 3541.58 100.33 3557.45 116.2 3541.58 116.2 3555.04 100.33 3570.91 84.46 3555.04 84.46 3541.58" style="fill:#ff9f37"/>
<polygon points="84.46 3513.01 100.33 3528.88 116.2 3513.01 116.2 3526.47 100.33 3542.34 84.46 3526.47 84.46 3513.01" style="fill:#ff9f37"/>
<polygon points="84.46 3484.45 100.33 3500.32 116.2 3484.45 116.2 3497.91 100.33 3513.78 84.46 3497.91 84.46 3484.45" style="fill:#ff9f37"/>
<polygon points="84.46 3455.88 100.33 3471.75 116.2 3455.88 116.2 3469.34 100.33 3485.21 84.46 3469.34 84.46 3455.88" style="fill:#ff9f37"/>
<polygon points="84.46 3427.32 100.33 3443.18 116.2 3427.32 116.2 3440.78 100.33 3456.65 84.46 3440.78 84.46 3427.32" style="fill:#ff9f37"/>
<polygon points="84.46 3398.75 100.33 3414.62 116.2 3398.75 116.2 3412.21 100.33 3428.08 84.46 3412.21 84.46 3398.75" style="fill:#ff9f37"/>
<polygon points="84.46 3370.18 100.33 3386.05 116.2 3370.18 116.2 3383.65 100.33 3399.52 84.46 3383.65 84.46 3370.18" style="fill:#ff9f37"/>
<polygon points="84.46 3341.62 100.33 3357.49 116.2 3341.62 116.2 3355.08 100.33 3370.95 84.46 3355.08 84.46 3341.62" style="fill:#ff9f37"/>
<polygon points="84.46 3313.05 100.33 3328.92 116.2 3313.05 116.2 3326.51 100.33 3342.39 84.46 3326.51 84.46 3313.05" style="fill:#ff9f37"/>
<polygon points="84.46 3284.49 100.33 3300.36 116.2 3284.49 116.2 3297.95 100.33 3313.82 84.46 3297.95 84.46 3284.49" style="fill:#ff9f37"/>
<polygon points="84.46 3255.92 100.33 3271.79 116.2 3255.92 116.2 3269.39 100.33 3285.26 84.46 3269.39 84.46 3255.92" style="fill:#ff9f37"/>
<polygon points="84.46 3227.36 100.33 3243.23 116.2 3227.36 116.2 3240.82 100.33 3256.69 84.46 3240.82 84.46 3227.36" style="fill:#ff9f37"/>
<polygon points="84.46 3198.79 100.33 3214.66 116.2 3198.79 116.2 3212.25 100.33 3228.12 84.46 3212.25 84.46 3198.79" style="fill:#ff9f37"/>
<polygon points="84.46 3170.23 100.33 3186.1 116.2 3170.23 116.2 3183.69 100.33 3199.56 84.46 3183.69 84.46 3170.23" style="fill:#ff9f37"/>
<polygon points="84.46 3141.66 100.33 3157.53 116.2 3141.66 116.2 3155.12 100.33 3170.99 84.46 3155.12 84.46 3141.66" style="fill:#ff9f37"/>
<polygon points="84.46 3113.1 100.33 3128.97 116.2 3113.1 116.2 3126.56 100.33 3142.43 84.46 3126.56 84.46 3113.1" style="fill:#ff9f37"/>
<polygon points="84.46 3084.53 100.33 3100.4 116.2 3084.53 116.2 3097.99 100.33 3113.86 84.46 3097.99 84.46 3084.53" style="fill:#ff9f37"/>
<polygon points="84.46 3055.97 100.33 3071.84 116.2 3055.97 116.2 3069.43 100.33 3085.3 84.46 3069.43 84.46 3055.97" style="fill:#ff9f37"/>
<polygon points="84.46 3027.4 100.33 3043.27 116.2 3027.4 116.2 3040.86 100.33 3056.73 84.46 3040.86 84.46 3027.4" style="fill:#ff9f37"/>
<polygon points="84.46 2998.84 100.33 3014.7 116.2 2998.84 116.2 3012.3 100.33 3028.17 84.46 3012.3 84.46 2998.84" style="fill:#ff9f37"/>
<polygon points="84.46 2970.27 100.33 2986.14 116.2 2970.27 116.2 2983.73 100.33 2999.6 84.46 2983.73 84.46 2970.27" style="fill:#ff9f37"/>
<polygon points="84.46 2941.7 100.33 2957.57 116.2 2941.7 116.2 2955.17 100.33 2971.04 84.46 2955.17 84.46 2941.7" style="fill:#ff9f37"/>
<polygon points="84.46 2913.14 100.33 2929.01 116.2 2913.14 116.2 2926.6 100.33 2942.47 84.46 2926.6 84.46 2913.14" style="fill:#ff9f37"/>
<polygon points="84.46 2884.57 100.33 2900.44 116.2 2884.57 116.2 2898.03 100.33 2913.91 84.46 2898.03 84.46 2884.57" style="fill:#ff9f37"/>
<polygon points="84.46 2856.01 100.33 2871.88 116.2 2856.01 116.2 2869.47 100.33 2885.34 84.46 2869.47 84.46 2856.01" style="fill:#ff9f37"/>
<polygon points="84.46 2827.44 100.33 2843.31 116.2 2827.44 116.2 2840.9 100.33 2856.77 84.46 2840.9 84.46 2827.44" style="fill:#ff9f37"/>
<polygon points="84.46 2798.88 100.33 2814.75 116.2 2798.88 116.2 2812.34 100.33 2828.21 84.46 2812.34 84.46 2798.88" style="fill:#ff9f37"/>
<polygon points="84.46 2770.31 100.33 2786.18 116.2 2770.31 116.2 2783.77 100.33 2799.64 84.46 2783.77 84.46 2770.31" style="fill:#ff9f37"/>
<polygon points="84.46 2741.75 100.33 2757.62 116.2 2741.75 116.2 2755.21 100.33 2771.08 84.46 2755.21 84.46 2741.75" style="fill:#ff9f37"/>
<polygon points="84.46 2713.18 100.33 2729.05 116.2 2713.18 116.2 2726.64 100.33 2742.51 84.46 2726.64 84.46 2713.18" style="fill:#ff9f37"/>
<polygon points="84.46 2684.62 100.33 2700.49 116.2 2684.62 116.2 2698.08 100.33 2713.95 84.46 2698.08 84.46 2684.62" style="fill:#ff9f37"/>
<polygon points="84.46 2656.05 100.33 2671.92 116.2 2656.05 116.2 2669.51 100.33 2685.38 84.46 2669.51 84.46 2656.05" style="fill:#ff9f37"/>
<polygon points="84.46 2627.49 100.33 2643.35 116.2 2627.49 116.2 2640.95 100.33 2656.82 84.46 2640.95 84.46 2627.49" style="fill:#ff9f37"/>
<polygon points="84.46 2598.92 100.33 2614.79 116.2 2598.92 116.2 2612.38 100.33 2628.25 84.46 2612.38 84.46 2598.92" style="fill:#ff9f37"/>
<polygon points="84.46 2570.36 100.33 2586.22 116.2 2570.36 116.2 2583.82 100.33 2599.69 84.46 2583.82 84.46 2570.36" style="fill:#ff9f37"/>
<polygon points="84.46 2541.79 100.33 2557.66 116.2 2541.79 116.2 2555.25 100.33 2571.12 84.46 2555.25 84.46 2541.79" style="fill:#ff9f37"/>
<polygon points="84.46 2513.22 100.33 2529.09 116.2 2513.22 116.2 2526.68 100.33 2542.55 84.46 2526.68 84.46 2513.22" style="fill:#ff9f37"/>
<polygon points="84.46 2484.66 100.33 2500.53 116.2 2484.66 116.2 2498.12 100.33 2513.99 84.46 2498.12 84.46 2484.66" style="fill:#ff9f37"/>
<polygon points="84.46 2456.09 100.33 2471.96 116.2 2456.09 116.2 2469.55 100.33 2485.43 84.46 2469.55 84.46 2456.09" style="fill:#ff9f37"/>
<polygon points="84.46 2427.53 100.33 2443.4 116.2 2427.53 116.2 2440.99 100.33 2456.86 84.46 2440.99 84.46 2427.53" style="fill:#ff9f37"/>
<polygon points="84.46 2398.96 100.33 2414.83 116.2 2398.96 116.2 2412.42 100.33 2428.29 84.46 2412.42 84.46 2398.96" style="fill:#ff9f37"/>
<polygon points="84.46 2370.4 100.33 2386.27 116.2 2370.4 116.2 2383.86 100.33 2399.73 84.46 2383.86 84.46 2370.4" style="fill:#ff9f37"/>
<polygon points="84.46 2341.83 100.33 2357.7 116.2 2341.83 116.2 2355.29 100.33 2371.16 84.46 2355.29 84.46 2341.83" style="fill:#ff9f37"/>
<polygon points="84.46 2313.27 100.33 2329.14 116.2 2313.27 116.2 2326.73 100.33 2342.6 84.46 2326.73 84.46 2313.27" style="fill:#ff9f37"/>
<polygon points="84.46 2284.7 100.33 2300.57 116.2 2284.7 116.2 2298.16 100.33 2314.03 84.46 2298.16 84.46 2284.7" style="fill:#ff9f37"/>
<polygon points="84.46 2256.14 100.33 2272.01 116.2 2256.14 116.2 2269.6 100.33 2285.47 84.46 2269.6 84.46 2256.14" style="fill:#ff9f37"/>
<polygon points="84.46 2227.57 100.33 2243.44 116.2 2227.57 116.2 2241.03 100.33 2256.9 84.46 2241.03 84.46 2227.57" style="fill:#ff9f37"/>
<polygon points="84.46 2199.01 100.33 2214.87 116.2 2199.01 116.2 2212.47 100.33 2228.34 84.46 2212.47 84.46 2199.01" style="fill:#ff9f37"/>
<polygon points="84.46 2170.44 100.33 2186.31 116.2 2170.44 116.2 2183.9 100.33 2199.77 84.46 2183.9 84.46 2170.44" style="fill:#ff9f37"/>
<polygon points="84.46 2141.87 100.33 2157.74 116.2 2141.87 116.2 2155.34 100.33 2171.2 84.46 2155.34 84.46 2141.87" style="fill:#ff9f37"/>
<polygon points="84.46 2113.31 100.33 2129.18 116.2 2113.31 116.2 2126.77 100.33 2142.64 84.46 2126.77 84.46 2113.31" style="fill:#ff9f37"/>
<polygon points="84.46 2084.74 100.33 2100.61 116.2 2084.74 116.2 2098.2 100.33 2114.07 84.46 2098.2 84.46 2084.74" style="fill:#ff9f37"/>
<polygon points="84.46 2056.18 100.33 2072.05 116.2 2056.18 116.2 2069.64 100.33 2085.51 84.46 2069.64 84.46 2056.18" style="fill:#ff9f37"/>
<polygon points="84.46 2027.61 100.33 2043.48 116.2 2027.61 116.2 2041.07 100.33 2056.94 84.46 2041.07 84.46 2027.61" style="fill:#ff9f37"/>
<polygon points="84.46 1999.05 100.33 2014.92 116.2 1999.05 116.2 2012.51 100.33 2028.38 84.46 2012.51 84.46 1999.05" style="fill:#ff9f37"/>
<polygon points="84.46 1970.48 100.33 1986.35 116.2 1970.48 116.2 1983.94 100.33 1999.81 84.46 1983.94 84.46 1970.48" style="fill:#ff9f37"/>
<polygon points="84.46 1941.92 100.33 1957.79 116.2 1941.92 116.2 1955.38 100.33 1971.25 84.46 1955.38 84.46 1941.92" style="fill:#ff9f37"/>
<polygon points="84.46 1913.35 100.33 1929.22 116.2 1913.35 116.2 1926.81 100.33 1942.68 84.46 1926.81 84.46 1913.35" style="fill:#ff9f37"/>
<polygon points="84.46 1884.79 100.33 1900.65 116.2 1884.79 116.2 1898.25 100.33 1914.12 84.46 1898.25 84.46 1884.79" style="fill:#ff9f37"/>
<polygon points="84.46 1856.22 100.33 1872.09 116.2 1856.22 116.2 1869.68 100.33 1885.55 84.46 1869.68 84.46 1856.22" style="fill:#ff9f37"/>
<polygon points="84.46 1827.65 100.33 1843.52 116.2 1827.65 116.2 1841.12 100.33 1856.99 84.46 1841.12 84.46 1827.65" style="fill:#ff9f37"/>
<polygon points="84.46 1799.09 100.33 1814.96 116.2 1799.09 116.2 1812.55 100.33 1828.42 84.46 1812.55 84.46 1799.09" style="fill:#ff9f37"/>
<polygon points="84.46 1770.53 100.33 1786.39 116.2 1770.53 116.2 1783.98 100.33 1799.86 84.46 1783.98 84.46 1770.53" style="fill:#ff9f37"/>
<polygon points="84.46 1741.96 100.33 1757.83 116.2 1741.96 116.2 1755.42 100.33 1771.29 84.46 1755.42 84.46 1741.96" style="fill:#ff9f37"/>
<polygon points="84.46 1713.39 100.33 1729.26 116.2 1713.39 116.2 1726.86 100.33 1742.72 84.46 1726.86 84.46 1713.39" style="fill:#ff9f37"/>
<polygon points="84.46 1684.83 100.33 1700.7 116.2 1684.83 116.2 1698.29 100.33 1714.16 84.46 1698.29 84.46 1684.83" style="fill:#ff9f37"/>
<polygon points="84.46 1656.26 100.33 1672.13 116.2 1656.26 116.2 1669.72 100.33 1685.59 84.46 1669.72 84.46 1656.26" style="fill:#ff9f37"/>
<polygon points="84.46 1627.7 100.33 1643.57 116.2 1627.7 116.2 1641.16 100.33 1657.03 84.46 1641.16 84.46 1627.7" style="fill:#ff9f37"/>
<polygon points="84.46 1599.13 100.33 1615 116.2 1599.13 116.2 1612.59 100.33 1628.46 84.46 1612.59 84.46 1599.13" style="fill:#ff9f37"/>
<polygon points="84.46 1570.57 100.33 1586.44 116.2 1570.57 116.2 1584.03 100.33 1599.9 84.46 1584.03 84.46 1570.57" style="fill:#ff9f37"/>
<polygon points="84.46 1542 100.33 1557.87 116.2 1542 116.2 1555.46 100.33 1571.33 84.46 1555.46 84.46 1542" style="fill:#ff9f37"/>
<polygon points="84.46 1513.44 100.33 1529.31 116.2 1513.44 116.2 1526.9 100.33 1542.77 84.46 1526.9 84.46 1513.44" style="fill:#ff9f37"/>
<polygon points="84.46 1484.87 100.33 1500.74 116.2 1484.87 116.2 1498.33 100.33 1514.2 84.46 1498.33 84.46 1484.87" style="fill:#ff9f37"/>
<polygon points="84.46 1456.31 100.33 1472.17 116.2 1456.31 116.2 1469.77 100.33 1485.64 84.46 1469.77 84.46 1456.31" style="fill:#ff9f37"/>
<polygon points="84.46 1427.74 100.33 1443.61 116.2 1427.74 116.2 1441.2 100.33 1457.07 84.46 1441.2 84.46 1427.74" style="fill:#ff9f37"/>
<polygon points="84.46 1399.17 100.33 1415.04 116.2 1399.17 116.2 1412.64 100.33 1428.51 84.46 1412.64 84.46 1399.17" style="fill:#ff9f37"/>
<polygon points="84.46 1370.61 100.33 1386.48 116.2 1370.61 116.2 1384.07 100.33 1399.94 84.46 1384.07 84.46 1370.61" style="fill:#ff9f37"/>
<polygon points="84.46 1342.04 100.33 1357.91 116.2 1342.04 116.2 1355.51 100.33 1371.38 84.46 1355.51 84.46 1342.04" style="fill:#ff9f37"/>
<polygon points="84.46 1313.48 100.33 1329.35 116.2 1313.48 116.2 1326.94 100.33 1342.81 84.46 1326.94 84.46 1313.48" style="fill:#ff9f37"/>
<polygon points="84.46 1284.91 100.33 1300.78 116.2 1284.91 116.2 1298.37 100.33 1314.24 84.46 1298.37 84.46 1284.91" style="fill:#ff9f37"/>
<polygon points="84.46 1256.35 100.33 1272.22 116.2 1256.35 116.2 1269.81 100.33 1285.68 84.46 1269.81 84.46 1256.35" style="fill:#ff9f37"/>
<polygon points="84.46 1227.78 100.33 1243.65 116.2 1227.78 116.2 1241.24 100.33 1257.11 84.46 1241.24 84.46 1227.78" style="fill:#ff9f37"/>
<polygon points="84.46 1199.22 100.33 1215.09 116.2 1199.22 116.2 1212.68 100.33 1228.55 84.46 1212.68 84.46 1199.22" style="fill:#ff9f37"/>
<polygon points="84.46 1170.65 100.33 1186.52 116.2 1170.65 116.2 1184.11 100.33 1199.98 84.46 1184.11 84.46 1170.65" style="fill:#ff9f37"/>
<polygon points="84.46 1142.09 100.33 1157.95 116.2 1142.09 116.2 1155.55 100.33 1171.42 84.46 1155.55 84.46 1142.09" style="fill:#ff9f37"/>
<polygon points="84.46 1113.52 100.33 1129.39 116.2 1113.52 116.2 1126.98 100.33 1142.85 84.46 1126.98 84.46 1113.52" style="fill:#ff9f37"/>
<polygon points="84.46 1084.96 100.33 1100.82 116.2 1084.96 116.2 1098.42 100.33 1114.29 84.46 1098.42 84.46 1084.96" style="fill:#ff9f37"/>
<polygon points="84.46 1056.39 100.33 1072.26 116.2 1056.39 116.2 1069.85 100.33 1085.72 84.46 1069.85 84.46 1056.39" style="fill:#ff9f37"/>
<polygon points="84.46 1027.83 100.33 1043.69 116.2 1027.83 116.2 1041.29 100.33 1057.16 84.46 1041.29 84.46 1027.83" style="fill:#ff9f37"/>
<polygon points="84.46 999.26 100.33 1015.13 116.2 999.26 116.2 1012.72 100.33 1028.59 84.46 1012.72 84.46 999.26" style="fill:#ff9f37"/>
<polygon points="84.46 970.69 100.33 986.56 116.2 970.69 116.2 984.15 100.33 1000.02 84.46 984.15 84.46 970.69" style="fill:#ff9f37"/>
<polygon points="84.46 942.13 100.33 958 116.2 942.13 116.2 955.59 100.33 971.46 84.46 955.59 84.46 942.13" style="fill:#ff9f37"/>
<polygon points="84.46 913.56 100.33 929.43 116.2 913.56 116.2 927.02 100.33 942.89 84.46 927.02 84.46 913.56" style="fill:#ff9f37"/>
<polygon points="84.46 885 100.33 900.87 116.2 885 116.2 898.46 100.33 914.33 84.46 898.46 84.46 885" style="fill:#ff9f37"/>
<polygon points="84.46 856.43 100.33 872.3 116.2 856.43 116.2 869.89 100.33 885.76 84.46 869.89 84.46 856.43" style="fill:#ff9f37"/>
<polygon points="84.46 827.87 100.33 843.74 116.2 827.87 116.2 841.33 100.33 857.2 84.46 841.33 84.46 827.87" style="fill:#ff9f37"/>
<polygon points="84.46 799.3 100.33 815.17 116.2 799.3 116.2 812.76 100.33 828.63 84.46 812.76 84.46 799.3" style="fill:#ff9f37"/>
<polygon points="84.46 770.74 100.33 786.61 116.2 770.74 116.2 784.2 100.33 800.07 84.46 784.2 84.46 770.74" style="fill:#ff9f37"/>
<polygon points="84.46 742.17 100.33 758.04 116.2 742.17 116.2 755.63 100.33 771.5 84.46 755.63 84.46 742.17" style="fill:#ff9f37"/>
<polygon points="84.46 713.61 100.33 729.48 116.2 713.61 116.2 727.07 100.33 742.94 84.46 727.07 84.46 713.61" style="fill:#ff9f37"/>
<polygon points="84.46 685.04 100.33 700.91 116.2 685.04 116.2 698.5 100.33 714.37 84.46 698.5 84.46 685.04" style="fill:#ff9f37"/>
<polygon points="84.46 656.48 100.33 672.34 116.2 656.48 116.2 669.94 100.33 685.81 84.46 669.94 84.46 656.48" style="fill:#ff9f37"/>
<polygon points="84.46 627.91 100.33 643.78 116.2 627.91 116.2 641.37 100.33 657.24 84.46 641.37 84.46 627.91" style="fill:#ff9f37"/>
<polygon points="84.46 599.34 100.33 615.21 116.2 599.34 116.2 612.8 100.33 628.68 84.46 612.8 84.46 599.34" style="fill:#ff9f37"/>
<polygon points="84.46 570.78 100.33 586.65 116.2 570.78 116.2 584.24 100.33 600.11 84.46 584.24 84.46 570.78" style="fill:#ff9f37"/>
<polygon points="84.46 542.21 100.33 558.08 116.2 542.21 116.2 555.67 100.33 571.54 84.46 555.67 84.46 542.21" style="fill:#ff9f37"/>
<polygon points="84.46 513.65 100.33 529.52 116.2 513.65 116.2 527.11 100.33 542.98 84.46 527.11 84.46 513.65" style="fill:#ff9f37"/>
<polygon points="84.46 485.08 100.33 500.95 116.2 485.08 116.2 498.54 100.33 514.41 84.46 498.54 84.46 485.08" style="fill:#ff9f37"/>
<polygon points="84.46 456.52 100.33 472.39 116.2 456.52 116.2 469.98 100.33 485.85 84.46 469.98 84.46 456.52" style="fill:#ff9f37"/>
<polygon points="84.46 427.95 100.33 443.82 116.2 427.95 116.2 441.41 100.33 457.28 84.46 441.41 84.46 427.95" style="fill:#ff9f37"/>
<polygon points="84.46 399.39 100.33 415.26 116.2 399.39 116.2 412.85 100.33 428.72 84.46 412.85 84.46 399.39" style="fill:#ff9f37"/>
<polygon points="84.46 370.82 100.33 386.69 116.2 370.82 116.2 384.28 100.33 400.15 84.46 384.28 84.46 370.82" style="fill:#ff9f37"/>
<polygon points="84.46 342.26 100.33 358.13 116.2 342.26 116.2 355.72 100.33 371.59 84.46 355.72 84.46 342.26" style="fill:#ff9f37"/>
<polygon points="84.46 313.69 100.33 329.56 116.2 313.69 116.2 327.15 100.33 343.02 84.46 327.15 84.46 313.69" style="fill:#ff9f37"/>
<polygon points="84.46 285.13 100.33 300.99 116.2 285.13 116.2 298.59 100.33 314.46 84.46 298.59 84.46 285.13" style="fill:#ff9f37"/>
<polygon points="84.46 256.56 100.33 272.43 116.2 256.56 116.2 270.02 100.33 285.89 84.46 270.02 84.46 256.56" style="fill:#ff9f37"/>
<polygon points="84.46 228 100.33 243.86 116.2 228 116.2 241.46 100.33 257.33 84.46 241.46 84.46 228" style="fill:#ff9f37"/>
<polygon points="84.46 199.43 100.33 215.3 116.2 199.43 116.2 212.89 100.33 228.76 84.46 212.89 84.46 199.43" style="fill:#ff9f37"/>
<polygon points="84.46 170.86 100.33 186.73 116.2 170.86 116.2 184.32 100.33 200.19 84.46 184.32 84.46 170.86" style="fill:#ff9f37"/>
<polygon points="84.46 142.3 100.33 158.17 116.2 142.3 116.2 155.76 100.33 171.63 84.46 155.76 84.46 142.3" style="fill:#ff9f37"/>
<polygon points="84.46 113.73 100.33 129.6 116.2 113.73 116.2 127.19 100.33 143.06 84.46 127.19 84.46 113.73" style="fill:#ff9f37"/>
<polygon points="84.46 85.17 100.33 101.04 116.2 85.17 116.2 98.63 100.33 114.5 84.46 98.63 84.46 85.17" style="fill:#ff9f37"/>
</g>
<g id="Icons">
<image class="wirkungskette-icon wirkungskette-icon-1" width="400" height="400" transform="scale(0.5)" xlink:href="wp-content/themes/Velafrica-Theme/dist/img/content/1_Sammlung@2x.png"/>
<image class="wirkungskette-icon wirkungskette-icon-2" width="400" height="400" transform="translate(0 847.2) scale(0.5)" xlink:href="https://velafrica.ch/wp-content/themes/Velafrica-Theme/dist/img/content/2_Integration@2x.png"/>
<image class="wirkungskette-icon wirkungskette-icon-3" width="400" height="400" transform="translate(0 1744.4) scale(0.5)" xlink:href="https://velafrica.ch/wp-content/themes/Velafrica-Theme/dist/img/content/3_Export@2x.png"/>
<image class="wirkungskette-icon wirkungskette-icon-4" width="400" height="400" transform="translate(0 2481.6) scale(0.5)" xlink:href="https://velafrica.ch/wp-content/themes/Velafrica-Theme/dist/img/content/4_Soziales%20Unternehmertum@2x.png"/>
<image class="wirkungskette-icon wirkungskette-icon-5" width="400" height="400" transform="translate(0 3298.8) scale(0.5)" xlink:href="https://velafrica.ch/wp-content/themes/Velafrica-Theme/dist/img/content/5_Berufsbildung@2x.png"/>
<image class="wirkungskette-icon wirkungskette-icon-6" width="400" height="400" transform="translate(0 3939.33) scale(0.5)" xlink:href="https://velafrica.ch/wp-content/themes/Velafrica-Theme/dist/img/content/6_Mobilitaet@2x.png"/>
</g>
</svg>