<svg id="wirkungskette-svg" xmlns="http://www.w3.org/2000/svg" xmlns:xlink="http://www.w3.org/1999/xlink" viewBox="0 0 905 1900">
<g id="path">
<polygon points="606.79 1747.13 627.35 1756.15 636.37 1735.6 641.26 1748.14 632.24 1768.69 611.68 1759.67 606.79 1747.13" style="fill:#ff9f37"/>
<polygon points="593.87 1726.81 616.08 1730.03 619.3 1707.82 627.36 1718.61 624.14 1740.82 601.92 1737.6 593.87 1726.81" style="fill:#ff9f37"/>
<polygon points="576.78 1703.92 598.99 1707.14 602.21 1684.93 610.26 1695.72 607.04 1717.93 584.83 1714.71 576.78 1703.92" style="fill:#ff9f37"/>
<polygon points="555.42 1691.27 577.68 1688.41 574.82 1666.15 585.47 1674.38 588.33 1696.63 566.07 1699.5 555.42 1691.27" style="fill:#ff9f37"/>
<polygon points="532.48 1681.29 553.52 1673.5 545.73 1652.45 557.96 1658.07 565.76 1679.12 544.71 1686.91 532.48 1681.29" style="fill:#ff9f37"/>
<polygon points="507.85 1673.26 527.36 1662.15 516.26 1642.65 529.24 1646.21 540.34 1665.72 520.84 1676.82 507.85 1673.26" style="fill:#ff9f37"/>
<polygon points="480.31 1665.69 499.81 1654.59 488.71 1635.09 501.69 1638.65 512.79 1658.15 493.29 1669.26 480.31 1665.69" style="fill:#ff9f37"/>
<polygon points="453.54 1662.21 471.8 1649.16 458.74 1630.9 472.02 1633.11 485.08 1651.37 466.82 1664.42 453.54 1662.21" style="fill:#ff9f37"/>
<polygon points="426.03 1658.93 443.56 1644.91 429.54 1627.38 442.92 1628.87 456.94 1646.39 439.41 1660.41 426.03 1658.93" style="fill:#ff9f37"/>
<polygon points="397.64 1655.77 415.17 1641.75 401.15 1624.23 414.53 1625.71 428.55 1643.24 411.02 1657.26 397.64 1655.77" style="fill:#ff9f37"/>
<polygon points="369.39 1653.1 386.75 1638.86 372.52 1621.51 385.92 1622.84 400.15 1640.19 382.79 1654.42 369.39 1653.1" style="fill:#ff9f37"/>
<polygon points="340.64 1649.67 358.34 1635.88 344.55 1618.18 357.9 1619.83 371.7 1637.54 354 1651.33 340.64 1649.67" style="fill:#ff9f37"/>
<polygon points="312.29 1646.16 329.99 1632.36 316.2 1614.66 329.56 1616.32 343.35 1634.02 325.65 1647.82 312.29 1646.16" style="fill:#ff9f37"/>
<polygon points="283.4 1640.11 301.87 1627.37 289.13 1608.89 302.37 1611.32 315.11 1629.8 296.64 1642.54 283.4 1640.11" style="fill:#ff9f37"/>
<polygon points="254.53 1631.55 274.14 1620.64 263.23 1601.03 276.18 1604.71 287.09 1624.32 267.48 1635.24 254.53 1631.55" style="fill:#ff9f37"/>
<polygon points="226.17 1619.68 247.11 1611.61 239.03 1590.67 251.34 1596.13 259.41 1617.07 238.47 1625.14 226.17 1619.68" style="fill:#ff9f37"/>
<polygon points="199.16 1603.68 221.23 1599.61 217.16 1577.54 228.25 1585.18 232.31 1607.25 210.24 1611.32 199.16 1603.68" style="fill:#ff9f37"/>
<polygon points="175.63 1587.47 197.7 1583.41 193.64 1561.34 204.72 1568.97 208.79 1591.05 186.72 1595.11 175.63 1587.47" style="fill:#ff9f37"/>
<polygon points="155.38 1562.13 177.81 1563.02 178.7 1540.6 187.83 1550.48 186.94 1572.91 164.51 1572.02 155.38 1562.13" style="fill:#ff9f37"/>
<polygon points="140.15 1533.57 161.76 1539.6 167.8 1517.99 174.41 1529.72 168.37 1551.33 146.75 1545.3 140.15 1533.57" style="fill:#ff9f37"/>
<polygon points="129.32 1503.63 149.18 1514.1 159.64 1494.25 163.62 1507.11 153.16 1526.96 133.3 1516.49 129.32 1503.63" style="fill:#ff9f37"/>
<polygon points="120.88 1476.35 140.73 1486.81 151.19 1466.96 155.18 1479.82 144.71 1499.67 124.86 1489.2 120.88 1476.35" style="fill:#ff9f37"/>
<polygon points="117.94 1445.02 135.66 1458.8 149.44 1441.08 151.11 1454.44 137.32 1472.15 119.61 1458.37 117.94 1445.02" style="fill:#ff9f37"/>
<polygon points="114.41 1416.67 132.12 1430.45 145.9 1412.74 147.57 1426.1 133.79 1443.81 116.07 1430.03 114.41 1416.67" style="fill:#ff9f37"/>
<polygon points="116.14 1385.86 131.8 1401.92 147.87 1386.26 147.7 1399.72 131.63 1415.39 115.96 1399.32 116.14 1385.86" style="fill:#ff9f37"/>
<polygon points="120.38 1354.94 133.06 1373.45 151.57 1360.77 149.1 1374 130.59 1386.68 117.9 1368.17 120.38 1354.94" style="fill:#ff9f37"/>
<polygon points="125.63 1326.86 138.31 1345.37 156.82 1332.69 154.35 1345.92 135.84 1358.61 123.15 1340.09 125.63 1326.86" style="fill:#ff9f37"/>
<polygon points="141.53 1298.1 149.36 1319.13 170.39 1311.31 164.79 1323.55 143.75 1331.37 135.93 1310.34 141.53 1298.1" style="fill:#ff9f37"/>
<polygon points="166.26 1274.71 167.24 1297.13 189.66 1296.16 180.57 1306.08 158.14 1307.06 157.17 1284.64 166.26 1274.71" style="fill:#ff9f37"/>
<polygon points="200.55 1261.84 191.52 1282.39 212.07 1291.41 199.53 1296.3 178.98 1287.28 188 1266.73 200.55 1261.84" style="fill:#ff9f37"/>
<polygon points="232.63 1257.56 219.24 1275.57 237.25 1288.96 223.93 1290.92 205.92 1277.53 219.31 1259.52 232.63 1257.56" style="fill:#ff9f37"/>
<polygon points="262.75 1257.24 247.75 1273.94 264.44 1288.94 251 1289.65 234.31 1274.65 249.31 1257.96 262.75 1257.24" style="fill:#ff9f37"/>
<polygon points="293.13 1260.71 276.26 1275.51 291.05 1292.38 277.62 1291.5 262.82 1274.63 279.7 1259.83 293.13 1260.71" style="fill:#ff9f37"/>
<polygon points="322.5 1265.26 304.62 1278.82 318.18 1296.7 304.84 1294.87 291.28 1276.99 309.16 1263.42 322.5 1265.26" style="fill:#ff9f37"/>
<polygon points="351.21 1270.22 332.85 1283.12 345.75 1301.49 332.49 1299.17 319.59 1280.81 337.95 1267.91 351.21 1270.22" style="fill:#ff9f37"/>
<polygon points="379.41 1275.23 360.99 1288.05 373.8 1306.47 360.55 1304.1 347.74 1285.67 366.16 1272.86 379.41 1275.23" style="fill:#ff9f37"/>
<polygon points="407.56 1280.49 389.08 1293.22 401.81 1311.7 388.57 1309.26 375.84 1290.78 394.32 1278.05 407.56 1280.49" style="fill:#ff9f37"/>
<polygon points="435.39 1285.15 417.19 1298.29 430.33 1316.48 417.04 1314.34 403.9 1296.14 422.1 1283.01 435.39 1285.15" style="fill:#ff9f37"/>
<polygon points="463.59 1289.7 445.39 1302.84 458.53 1321.04 445.24 1318.89 432.1 1300.69 450.3 1287.56 463.59 1289.7" style="fill:#ff9f37"/>
<polygon points="491.09 1292.86 473.65 1306.98 487.77 1324.42 474.38 1323.01 460.26 1305.57 477.7 1291.45 491.09 1292.86" style="fill:#ff9f37"/>
<polygon points="519.5 1295.84 502.06 1309.97 516.18 1327.41 502.79 1326 488.67 1308.56 506.11 1294.43 519.5 1295.84" style="fill:#ff9f37"/>
<polygon points="546.62 1296.43 530.52 1312.07 546.15 1328.17 532.7 1327.97 517.06 1311.88 533.15 1296.24 546.62 1296.43" style="fill:#ff9f37"/>
<polygon points="575.18 1296.85 559.08 1312.48 574.72 1328.58 561.26 1328.39 545.62 1312.29 561.72 1296.65 575.18 1296.85" style="fill:#ff9f37"/>
<polygon points="601.5 1293.71 587.56 1311.3 605.15 1325.24 591.78 1326.79 574.19 1312.85 588.13 1295.26 601.5 1293.71" style="fill:#ff9f37"/>
<polygon points="629.88 1290.43 615.94 1308.02 633.53 1321.96 620.15 1323.51 602.57 1309.57 616.51 1291.98 629.88 1290.43" style="fill:#ff9f37"/>
<polygon points="654.52 1282.43 643.79 1302.14 663.49 1312.88 650.58 1316.68 630.87 1305.95 641.61 1286.24 654.52 1282.43" style="fill:#ff9f37"/>
<polygon points="681.92 1274.36 671.19 1294.07 690.89 1304.8 677.98 1308.61 658.27 1297.87 669.01 1278.16 681.92 1274.36" style="fill:#ff9f37"/>
<polygon points="703.55 1260.91 697.11 1282.41 718.61 1288.85 706.76 1295.23 685.26 1288.8 691.7 1267.3 703.55 1260.91" style="fill:#ff9f37"/>
<polygon points="728.7 1247.36 722.26 1268.85 743.75 1275.29 731.91 1281.68 710.41 1275.24 716.85 1253.74 728.7 1247.36" style="fill:#ff9f37"/>
<polygon points="746.26 1229.15 744.79 1251.55 767.19 1253.02 757.07 1261.89 734.67 1260.42 736.14 1238.03 746.26 1229.15" style="fill:#ff9f37"/>
<polygon points="767.74 1210.32 766.27 1232.71 788.67 1234.18 778.54 1243.06 756.15 1241.59 757.62 1219.19 767.74 1210.32" style="fill:#ff9f37"/>
<polygon points="783.34 1189.51 785.63 1211.83 807.95 1209.55 799.45 1219.99 777.13 1222.27 774.84 1199.95 783.34 1189.51" style="fill:#ff9f37"/>
<polygon points="801.38 1167.36 803.67 1189.68 825.99 1187.4 817.49 1197.84 795.16 1200.12 792.88 1177.8 801.38 1167.36" style="fill:#ff9f37"/>
<polygon points="814.38 1144.39 819.77 1166.18 841.56 1160.78 834.61 1172.31 812.82 1177.7 807.43 1155.92 814.38 1144.39" style="fill:#ff9f37"/>
<polygon points="829.13 1119.93 834.52 1141.71 856.31 1136.32 849.36 1147.85 827.57 1153.24 822.18 1131.46 829.13 1119.93" style="fill:#ff9f37"/>
<polygon points="836.13 1094.8 845.27 1115.3 865.76 1106.16 860.95 1118.73 840.45 1127.87 831.31 1107.37 836.13 1094.8" style="fill:#ff9f37"/>
<polygon points="839.71 1069.81 852.93 1087.94 871.07 1074.71 868.99 1088.01 850.85 1101.24 837.63 1083.11 839.71 1069.81" style="fill:#ff9f37"/>
<polygon points="839.17 1045.03 856.18 1059.67 870.82 1042.66 871.83 1056.08 857.19 1073.1 840.18 1058.46 839.17 1045.03" style="fill:#ff9f37"/>
<polygon points="834.06 1020.72 853.9 1031.21 864.39 1011.38 868.36 1024.24 857.86 1044.08 838.02 1033.58 834.06 1020.72" style="fill:#ff9f37"/>
<polygon points="825.65 993.42 845.49 1003.91 855.99 984.08 859.95 996.94 849.45 1016.78 829.62 1006.28 825.65 993.42" style="fill:#ff9f37"/>
<polygon points="810.93 972.1 832.42 978.56 838.88 957.07 845.26 968.93 838.79 990.42 817.3 983.96 810.93 972.1" style="fill:#ff9f37"/>
<polygon points="793.69 952.25 815.92 955.31 818.98 933.08 827.11 943.81 824.05 966.04 801.82 962.98 793.69 952.25" style="fill:#ff9f37"/>
<polygon points="774.2 934.48 796.64 934.32 796.49 911.88 806.07 921.34 806.23 943.78 783.78 943.93 774.2 934.48" style="fill:#ff9f37"/>
<polygon points="753.87 914.42 776.31 914.26 776.15 891.82 785.74 901.27 785.89 923.72 763.45 923.87 753.87 914.42" style="fill:#ff9f37"/>
<polygon points="732.08 898.55 754.38 896 751.83 873.7 762.37 882.07 764.92 904.37 742.62 906.92 732.08 898.55" style="fill:#ff9f37"/>
<polygon points="709.72 880.78 732.02 878.23 729.47 855.93 740 864.3 742.56 886.6 720.26 889.15 709.72 880.78" style="fill:#ff9f37"/>
<polygon points="686.83 864.79 709 861.31 705.52 839.14 716.4 847.07 719.88 869.24 697.71 872.72 686.83 864.79" style="fill:#ff9f37"/>
<polygon points="663.71 847.32 685.96 844.42 683.07 822.17 693.73 830.38 696.63 852.64 674.37 855.53 663.71 847.32" style="fill:#ff9f37"/>
<polygon points="641.07 829.9 663.33 827 660.43 804.75 671.1 812.96 673.99 835.21 651.74 838.11 641.07 829.9" style="fill:#ff9f37"/>
<polygon points="619.54 808.02 641.99 808.11 642.07 785.66 651.55 795.22 651.47 817.66 629.02 817.58 619.54 808.02" style="fill:#ff9f37"/>
<polygon points="599.26 788.78 621.69 788.01 620.92 765.58 630.76 774.77 631.53 797.2 609.1 797.97 599.26 788.78" style="fill:#ff9f37"/>
<polygon points="578.33 775.01 600.08 769.49 594.56 747.74 606.12 754.62 611.65 776.38 589.89 781.9 578.33 775.01" style="fill:#ff9f37"/>
<polygon points="553.78 760.41 575.53 754.88 570.01 733.13 581.58 740.02 587.1 761.77 565.35 767.29 553.78 760.41" style="fill:#ff9f37"/>
<polygon points="528.64 750.31 549.73 742.64 542.06 721.55 554.26 727.24 561.93 748.34 540.84 756 528.64 750.31" style="fill:#ff9f37"/>
<polygon points="502.85 739.45 523.65 731.01 515.21 710.21 527.61 715.46 536.05 736.25 515.25 744.69 502.85 739.45" style="fill:#ff9f37"/>
<polygon points="476.54 728.33 497.33 719.89 488.9 699.09 501.3 704.33 509.74 725.13 488.94 733.57 476.54 728.33" style="fill:#ff9f37"/>
<polygon points="450.24 716.95 471.08 708.63 462.77 687.79 475.13 693.1 483.45 713.95 462.6 722.26 450.24 716.95" style="fill:#ff9f37"/>
<polygon points="423.73 704.61 444.91 697.2 437.5 676.01 449.62 681.85 457.04 703.04 435.85 710.45 423.73 704.61" style="fill:#ff9f37"/>
<polygon points="397.99 692.22 419.17 684.8 411.76 663.62 423.88 669.46 431.3 690.64 410.12 698.06 397.99 692.22" style="fill:#ff9f37"/>
<polygon points="372.17 677.45 393.84 671.64 388.03 649.96 399.69 656.69 405.5 678.37 383.82 684.18 372.17 677.45" style="fill:#ff9f37"/>
<polygon points="347.43 663.17 369.1 657.36 363.29 635.68 374.95 642.41 380.76 664.09 359.08 669.9 347.43 663.17" style="fill:#ff9f37"/>
<polygon points="323.76 644.15 345.93 640.66 342.45 618.49 353.33 626.42 356.81 648.59 334.64 652.07 323.76 644.15" style="fill:#ff9f37"/>
<polygon points="301.88 622.23 324.32 622.1 324.2 599.66 333.77 609.12 333.9 631.57 311.45 631.69 301.88 622.23" style="fill:#ff9f37"/>
<polygon points="282.75 597.05 304.77 601.39 309.11 579.37 316.61 590.55 312.27 612.57 290.25 608.23 282.75 597.05" style="fill:#ff9f37"/>
<polygon points="266.84 573.33 288.86 577.67 293.2 555.65 300.7 566.83 296.36 588.85 274.34 584.51 266.84 573.33" style="fill:#ff9f37"/>
<polygon points="257.9 541.73 278.21 551.28 287.76 530.98 292.32 543.64 282.77 563.95 262.46 554.4 257.9 541.73" style="fill:#ff9f37"/>
<polygon points="255.01 509.12 272.15 523.62 286.64 506.49 287.76 519.9 273.26 537.04 256.13 522.54 255.01 509.12" style="fill:#ff9f37"/>
<polygon points="256.85 476.98 270 495.16 288.19 482.01 286.05 495.3 267.87 508.45 254.72 490.27 256.85 476.98" style="fill:#ff9f37"/>
<polygon points="261.38 448.77 274.53 466.96 292.72 453.81 290.58 467.1 272.4 480.25 259.25 462.06 261.38 448.77" style="fill:#ff9f37"/>
<polygon points="271.39 418.89 280.87 439.22 301.21 429.74 296.61 442.39 276.27 451.88 266.78 431.54 271.39 418.89" style="fill:#ff9f37"/>
<polygon points="281.15 392.04 290.64 412.38 310.98 402.89 306.38 415.54 286.04 425.03 276.55 404.69 281.15 392.04" style="fill:#ff9f37"/>
<polygon points="298.42 365.28 303.65 387.1 325.47 381.87 318.44 393.35 296.61 398.58 291.38 376.75 298.42 365.28" style="fill:#ff9f37"/>
<polygon points="319.29 340.97 319.43 363.41 341.87 363.28 332.41 372.85 309.97 372.99 309.83 350.55 319.29 340.97" style="fill:#ff9f37"/>
<polygon points="339.37 320.65 339.51 343.09 361.95 342.96 352.49 352.53 330.05 352.67 329.91 330.23 339.37 320.65" style="fill:#ff9f37"/>
<polygon points="368.08 305.28 363.11 327.16 384.99 332.14 373.6 339.31 351.71 334.33 356.69 312.45 368.08 305.28" style="fill:#ff9f37"/>
<polygon points="398.11 294.7 388.88 315.16 409.34 324.39 396.75 329.15 376.29 319.92 385.52 299.46 398.11 294.7" style="fill:#ff9f37"/>
<polygon points="428.37 287.98 416.1 306.77 434.9 319.04 421.72 321.81 402.93 309.54 415.19 290.75 428.37 287.98" style="fill:#ff9f37"/>
<polygon points="458.33 284.01 444.13 301.39 461.51 315.59 448.12 316.94 430.74 302.73 444.94 285.36 458.33 284.01" style="fill:#ff9f37"/>
<polygon points="486.76 281.15 472.56 298.53 489.93 312.74 476.54 314.08 459.16 299.88 473.36 282.5 486.76 281.15" style="fill:#ff9f37"/>
<polygon points="516.38 280.89 501.09 297.31 517.51 312.61 504.06 313.09 487.63 297.8 502.93 281.37 516.38 280.89" style="fill:#ff9f37"/>
<polygon points="545.36 280.71 529.65 296.74 545.67 312.45 532.21 312.59 516.18 296.87 531.9 280.85 545.36 280.71" style="fill:#ff9f37"/>
<polygon points="573.73 280.14 558.21 296.35 574.41 311.88 560.96 312.17 544.75 296.64 560.27 280.43 573.73 280.14" style="fill:#ff9f37"/>
<polygon points="601.41 278.63 586.76 295.63 603.76 310.28 590.34 311.28 573.34 296.63 587.99 279.63 601.41 278.63" style="fill:#ff9f37"/>
<polygon points="629.9 276.51 615.25 293.51 632.25 308.17 618.83 309.16 601.82 294.51 616.47 277.51 629.9 276.51" style="fill:#ff9f37"/>
<polygon points="656.26 270.48 643.42 288.88 661.82 301.73 648.57 304.09 630.16 291.24 643.01 272.84 656.26 270.48" style="fill:#ff9f37"/>
<polygon points="680.35 260.31 670.67 280.56 690.91 290.24 678.22 294.72 657.97 285.04 667.65 264.79 680.35 260.31" style="fill:#ff9f37"/>
<polygon points="700.46 245.17 695.67 267.1 717.6 271.88 706.27 279.15 684.34 274.37 689.13 252.44 700.46 245.17" style="fill:#ff9f37"/>
<polygon points="715 225.48 716.45 247.87 738.84 246.42 729.96 256.54 707.56 257.99 706.11 235.59 715 225.48" style="fill:#ff9f37"/>
<polygon points="724.17 202.9 731.7 224.04 752.84 216.52 747.06 228.68 725.92 236.2 718.39 215.05 724.17 202.9" style="fill:#ff9f37"/>
<polygon points="729.88 178.7 742.02 197.58 760.9 185.44 758.04 198.6 739.16 210.73 727.02 191.85 729.88 178.7" style="fill:#ff9f37"/>
<polygon points="735.95 150.79 748.09 169.66 766.97 157.53 764.11 170.68 745.23 182.82 733.09 163.94 735.95 150.79" style="fill:#ff9f37"/>
<polygon points="735.04 124.7 750.21 141.24 766.75 126.08 766.17 139.52 749.63 154.69 734.46 138.15 735.04 124.7" style="fill:#ff9f37"/>
<polygon points="736.28 96.16 751.45 112.7 767.99 97.54 767.41 110.98 750.86 126.15 735.7 109.61 736.28 96.16" style="fill:#ff9f37"/>
</g>
<g id="Icons">
<image class="wirkungskette-icon wirkungskette-icon-1" width="400" height="400" transform="translate(651.17 11.67) scale(0.6)" xlink:href="wp-content/themes/Velafrica-Theme/dist/img/content/1_Sammlung@2x.png"/>
<image class="wirkungskette-icon wirkungskette-icon-2" width="400" height="400" transform="translate(177.17 348.67) scale(0.6)" xlink:href="wp-content/themes/Velafrica-Theme/dist/img/content/2_Integration@2x.png"/>
<image class="wirkungskette-icon wirkungskette-icon-3" width="400" height="400" transform="translate(527 693) scale(0.6)" xlink:href="wp-content/themes/Velafrica-Theme/dist/img/content/3_Export@2x.png"/>
<image class="wirkungskette-icon wirkungskette-icon-4" width="400" height="400" transform="translate(675 1126) scale(0.6)" xlink:href="wp-content/themes/Velafrica-Theme/dist/img/content/4_Soziales%20Unternehmertum@2x.png"/>
<image class="wirkungskette-icon wirkungskette-icon-5" width="400" height="400" transform="translate(31.17 1325.67) scale(0.6)" xlink:href="wp-content/themes/Velafrica-Theme/dist/img/content/5_Berufsbildung@2x.png"/>
<image class="wirkungskette-icon wirkungskette-icon-6" width="400" height="400" transform="translate(534.17 1674.67) scale(0.8)" xlink:href="wp-content/themes/Velafrica-Theme/dist/img/content/6_Mobilitaet@2x.png"/>
</g>
</svg>