<svg xmlns="http://www.w3.org/2000/svg" xmlns:xlink="http://www.w3.org/1999/xlink" viewBox="0 0 905 1680">
<g id="path">
<polygon points="595.27 1546.75 617.48 1543.49 614.21 1521.28 625.01 1529.32 628.28 1551.52 606.07 1554.78 595.27 1546.75" style="fill:#ff9f37"/>
<polygon points="572.35 1529.71 594.55 1526.44 591.29 1504.24 602.09 1512.27 605.36 1534.47 583.15 1537.74 572.35 1529.71" style="fill:#ff9f37"/>
<polygon points="549.43 1512.66 571.63 1509.39 568.37 1487.19 579.17 1495.22 582.43 1517.43 560.23 1520.69 549.43 1512.66" style="fill:#ff9f37"/>
<polygon points="525.8 1499.72 547.53 1494.12 541.93 1472.39 553.53 1479.23 559.13 1500.96 537.39 1506.56 525.8 1499.72" style="fill:#ff9f37"/>
<polygon points="501.2 1485.2 522.93 1479.6 517.33 1457.87 528.92 1464.71 534.53 1486.44 512.79 1492.05 501.2 1485.2" style="fill:#ff9f37"/>
<polygon points="477.08 1473.44 498.09 1465.55 490.2 1444.54 502.46 1450.1 510.35 1471.12 489.33 1479 477.08 1473.44" style="fill:#ff9f37"/>
<polygon points="451.07 1461.62 472.08 1453.74 464.19 1432.72 476.45 1438.29 484.34 1459.3 463.33 1467.19 451.07 1461.62" style="fill:#ff9f37"/>
<polygon points="425.06 1449.81 446.07 1441.92 438.19 1420.91 450.44 1426.48 458.33 1447.49 437.32 1455.38 425.06 1449.81" style="fill:#ff9f37"/>
<polygon points="398.95 1442.55 419.07 1432.61 409.14 1412.49 421.89 1416.81 431.82 1436.93 411.7 1446.87 398.95 1442.55" style="fill:#ff9f37"/>
<polygon points="372.33 1434.17 392.03 1423.42 381.28 1403.72 394.19 1407.52 404.94 1427.22 385.25 1437.97 372.33 1434.17" style="fill:#ff9f37"/>
<polygon points="345.09 1428.01 364.33 1416.46 352.77 1397.21 365.83 1400.47 377.39 1419.72 358.15 1431.27 345.09 1428.01" style="fill:#ff9f37"/>
<polygon points="317.95 1422.42 336.54 1409.85 323.97 1391.26 337.19 1393.81 349.76 1412.4 331.17 1424.97 317.95 1422.42" style="fill:#ff9f37"/>
<polygon points="289.91 1417 308.5 1404.43 295.93 1385.84 309.14 1388.39 321.71 1406.98 303.12 1419.56 289.91 1417" style="fill:#ff9f37"/>
<polygon points="261.97 1412.02 280.41 1399.22 267.62 1380.78 280.86 1383.18 293.66 1401.62 275.22 1414.41 261.97 1412.02" style="fill:#ff9f37"/>
<polygon points="233.39 1405.88 252.35 1393.87 240.35 1374.91 253.49 1377.86 265.49 1396.83 246.53 1408.83 233.39 1405.88" style="fill:#ff9f37"/>
<polygon points="204.48 1397.19 224.59 1387.23 214.63 1367.12 227.39 1371.42 237.34 1391.54 217.23 1401.49 204.48 1397.19" style="fill:#ff9f37"/>
<polygon points="176.25 1383.55 197.84 1377.39 191.69 1355.81 203.45 1362.36 209.6 1383.94 188.01 1390.09 176.25 1383.55" style="fill:#ff9f37"/>
<polygon points="151.43 1362.73 173.87 1362.15 173.29 1339.72 183.05 1348.99 183.63 1371.42 161.19 1372 151.43 1362.73" style="fill:#ff9f37"/>
<polygon points="133.35 1335.47 155.12 1340.9 160.56 1319.13 167.49 1330.67 162.05 1352.44 140.28 1347.01 133.35 1335.47" style="fill:#ff9f37"/>
<polygon points="122.35 1305.33 142.34 1315.54 152.55 1295.56 156.7 1308.36 146.49 1328.35 126.5 1318.14 122.35 1305.33" style="fill:#ff9f37"/>
<polygon points="116.05 1274.9 134.1 1288.23 147.43 1270.18 149.43 1283.49 136.1 1301.55 118.05 1288.21 116.05 1274.9" style="fill:#ff9f37"/>
<polygon points="111.8 1246.65 129.85 1259.98 143.19 1241.93 145.19 1255.24 131.85 1273.3 113.8 1259.96 111.8 1246.65" style="fill:#ff9f37"/>
<polygon points="111.09 1216.31 127.56 1231.55 142.8 1215.08 143.32 1228.53 128.08 1245 111.61 1229.76 111.09 1216.31" style="fill:#ff9f37"/>
<polygon points="109.98 1187.77 126.45 1203.01 141.69 1186.54 142.22 1199.99 126.97 1216.46 110.5 1201.22 109.98 1187.77" style="fill:#ff9f37"/>
<polygon points="115.68 1156.71 129.16 1174.66 147.1 1161.18 145.21 1174.51 127.26 1187.99 113.78 1170.04 115.68 1156.71" style="fill:#ff9f37"/>
<polygon points="124.15 1126.09 133.54 1146.47 153.92 1137.08 149.26 1149.71 128.87 1159.1 119.49 1138.71 124.15 1126.09" style="fill:#ff9f37"/>
<polygon points="134.05 1099.29 143.44 1119.67 163.82 1110.29 159.16 1122.91 138.77 1132.3 129.38 1111.92 134.05 1099.29" style="fill:#ff9f37"/>
<polygon points="154.37 1073.19 157.96 1095.34 180.11 1091.75 172.24 1102.67 150.09 1106.26 146.49 1084.11 154.37 1073.19" style="fill:#ff9f37"/>
<polygon points="180.71 1052.84 177.63 1075.07 199.86 1078.14 189.13 1086.27 166.9 1083.19 169.97 1060.96 180.71 1052.84" style="fill:#ff9f37"/>
<polygon points="210.74 1039.75 201.82 1060.34 222.41 1069.26 209.89 1074.21 189.3 1065.29 198.22 1044.7 210.74 1039.75" style="fill:#ff9f37"/>
<polygon points="241.79 1032.92 228.76 1051.2 247.03 1064.23 233.76 1066.45 215.49 1053.42 228.51 1035.15 241.79 1032.92" style="fill:#ff9f37"/>
<polygon points="272.54 1030.41 256.94 1046.55 273.07 1062.15 259.62 1062.37 243.48 1046.77 259.08 1030.64 272.54 1030.41" style="fill:#ff9f37"/>
<polygon points="301.1 1029.93 285.5 1046.07 301.64 1061.67 288.18 1061.89 272.04 1046.29 287.64 1030.16 301.1 1029.93" style="fill:#ff9f37"/>
<polygon points="331.14 1033.1 314 1047.58 328.48 1064.72 315.07 1063.6 300.58 1046.45 317.73 1031.97 331.14 1033.1" style="fill:#ff9f37"/>
<polygon points="360.45 1037.13 342.4 1050.47 355.75 1068.52 342.44 1066.52 329.09 1048.48 347.13 1035.13 360.45 1037.13" style="fill:#ff9f37"/>
<polygon points="388.7 1041.35 370.65 1054.7 384 1072.74 370.69 1070.75 357.34 1052.71 375.38 1039.36 388.7 1041.35" style="fill:#ff9f37"/>
<polygon points="417.3 1047.07 398.77 1059.73 411.44 1078.26 398.2 1075.77 385.54 1057.24 404.07 1044.58 417.3 1047.07" style="fill:#ff9f37"/>
<polygon points="445.54 1052.7 426.83 1065.09 439.22 1083.8 426.03 1081.12 413.63 1062.41 432.35 1050.02 445.54 1052.7" style="fill:#ff9f37"/>
<polygon points="473.53 1058.39 454.82 1070.78 467.21 1089.49 454.02 1086.81 441.63 1068.1 460.34 1055.71 473.53 1058.39" style="fill:#ff9f37"/>
<polygon points="501.43 1063.8 482.84 1076.36 495.4 1094.95 482.18 1092.39 469.62 1073.79 488.22 1061.23 501.43 1063.8" style="fill:#ff9f37"/>
<polygon points="529.48 1069.23 510.88 1081.79 523.44 1100.39 510.23 1097.83 497.66 1079.23 516.26 1066.67 529.48 1069.23" style="fill:#ff9f37"/>
<polygon points="557.18 1073.32 539.04 1086.54 552.26 1104.68 538.96 1102.59 525.75 1084.45 543.89 1071.23 557.18 1073.32" style="fill:#ff9f37"/>
<polygon points="584.95 1077.14 567.26 1090.96 581.08 1108.65 567.72 1107 553.9 1089.32 571.59 1075.5 584.95 1077.14" style="fill:#ff9f37"/>
<polygon points="612.92 1079.13 595.71 1093.53 610.11 1110.74 596.71 1109.55 582.3 1092.34 599.52 1077.93 612.92 1079.13" style="fill:#ff9f37"/>
<polygon points="639.75 1078.72 624.21 1094.91 640.39 1110.45 626.93 1110.73 610.75 1095.18 626.29 1078.99 639.75 1078.72" style="fill:#ff9f37"/>
<polygon points="668.31 1078.15 652.76 1094.33 668.95 1109.88 655.49 1110.15 639.3 1094.6 654.85 1078.42 668.31 1078.15" style="fill:#ff9f37"/>
<polygon points="693.57 1071.15 680.9 1089.68 699.43 1102.35 686.2 1104.83 667.67 1092.16 680.34 1073.63 693.57 1071.15" style="fill:#ff9f37"/>
<polygon points="715.98 1060.31 708 1081.29 728.98 1089.26 716.7 1094.78 695.72 1086.8 703.7 1065.82 715.98 1060.31" style="fill:#ff9f37"/>
<polygon points="734.61 1045.85 733.2 1068.25 755.6 1069.67 745.5 1078.57 723.1 1077.15 724.51 1054.75 734.61 1045.85" style="fill:#ff9f37"/>
<polygon points="756.05 1026.97 754.63 1049.37 777.03 1050.78 766.93 1059.68 744.53 1058.27 745.95 1035.87 756.05 1026.97" style="fill:#ff9f37"/>
<polygon points="764.43 1003.72 770 1025.46 791.74 1019.89 784.88 1031.47 763.14 1037.04 757.57 1015.3 764.43 1003.72" style="fill:#ff9f37"/>
<polygon points="776.07 979.2 783.56 1000.35 804.72 992.85 798.92 1005 777.77 1012.5 770.27 991.35 776.07 979.2" style="fill:#ff9f37"/>
<polygon points="788.36 953.41 795.85 974.56 817.01 967.07 811.22 979.22 790.06 986.72 782.57 965.56 788.36 953.41" style="fill:#ff9f37"/>
<polygon points="794.09 927.81 804.84 947.51 824.54 936.77 820.74 949.68 801.03 960.43 790.29 940.72 794.09 927.81" style="fill:#ff9f37"/>
<polygon points="795.59 902.59 810.21 919.62 827.24 905 826.22 918.42 809.19 933.04 794.57 916.01 795.59 902.59" style="fill:#ff9f37"/>
<polygon points="791.4 878.38 809.77 891.26 822.66 872.89 824.99 886.14 812.1 904.52 793.73 891.63 791.4 878.38" style="fill:#ff9f37"/>
<polygon points="781.05 855.99 802.02 863.99 810.02 843.02 815.52 855.31 807.52 876.28 786.55 868.28 781.05 855.99" style="fill:#ff9f37"/>
<polygon points="765.65 835.66 787.78 839.38 791.51 817.25 799.31 828.22 795.59 850.35 773.46 846.63 765.65 835.66" style="fill:#ff9f37"/>
<polygon points="747.02 816.68 769.45 817.55 770.32 795.13 779.46 805.01 778.59 827.43 756.16 826.56 747.02 816.68" style="fill:#ff9f37"/>
<polygon points="726.75 797.93 749.18 797.43 748.69 775 758.41 784.3 758.91 806.74 736.47 807.24 726.75 797.93" style="fill:#ff9f37"/>
<polygon points="706.23 777.79 728.67 777.55 728.44 755.11 738.06 764.53 738.29 786.97 715.85 787.21 706.23 777.79" style="fill:#ff9f37"/>
<polygon points="686.61 755.18 708.99 756.88 710.69 734.51 719.46 744.72 717.76 767.1 695.38 765.4 686.61 755.18" style="fill:#ff9f37"/>
<polygon points="669.3 729.5 691.15 734.65 696.3 712.81 703.38 724.26 698.23 746.1 676.38 740.95 669.3 729.5" style="fill:#ff9f37"/>
<polygon points="654.97 702.95 676.15 710.35 683.56 689.16 689.4 701.29 682 722.48 660.81 715.07 654.97 702.95" style="fill:#ff9f37"/>
<polygon points="646.09 673.93 666.39 683.51 675.97 663.22 680.51 675.89 670.93 696.18 650.64 686.61 646.09 673.93" style="fill:#ff9f37"/>
<polygon points="643.36 641.71 660.95 655.64 674.88 638.05 676.43 651.42 662.5 669.01 644.91 655.08 643.36 641.71" style="fill:#ff9f37"/>
<polygon points="637.63 616.11 657.03 627.38 668.31 607.98 671.76 620.99 660.48 640.4 641.08 629.12 637.63 616.11" style="fill:#ff9f37"/>
<polygon points="630.31 588.5 649.72 599.77 660.99 580.37 664.44 593.38 653.16 612.78 633.76 601.51 630.31 588.5" style="fill:#ff9f37"/>
<polygon points="615.17 568.9 636.92 574.46 642.47 552.71 649.34 564.29 643.78 586.04 622.04 580.48 615.17 568.9" style="fill:#ff9f37"/>
<polygon points="595.7 555.03 618.09 553.45 616.5 531.06 626.67 539.88 628.26 562.27 605.87 563.86 595.7 555.03" style="fill:#ff9f37"/>
<polygon points="572.95 546.94 593.89 538.86 585.81 517.92 598.11 523.37 606.2 544.31 585.26 552.39 572.95 546.94" style="fill:#ff9f37"/>
<polygon points="548.09 543.2 566.71 530.66 554.17 512.05 567.38 514.63 579.92 533.24 561.3 545.78 548.09 543.2" style="fill:#ff9f37"/>
<polygon points="521.87 542.34 538.43 527.19 523.28 510.63 536.73 511.23 551.88 527.79 535.32 542.94 521.87 542.34" style="fill:#ff9f37"/>
<polygon points="494.73 543.29 509.89 526.75 493.35 511.58 506.8 511 523.34 526.16 508.18 542.71 494.73 543.29" style="fill:#ff9f37"/>
<polygon points="466.9 545.3 481.37 528.14 464.21 513.67 477.62 512.53 494.78 527 480.31 544.16 466.9 545.3" style="fill:#ff9f37"/>
<polygon points="438.43 547.72 452.9 530.56 435.75 516.09 449.16 514.95 466.32 529.42 451.85 546.58 438.43 547.72" style="fill:#ff9f37"/>
<polygon points="409.97 550.14 424.44 532.98 407.28 518.51 420.7 517.37 437.85 531.84 423.39 549 409.97 550.14" style="fill:#ff9f37"/>
<polygon points="380.74 551.08 395.92 534.55 379.4 519.37 392.85 518.8 409.37 533.99 394.19 550.51 380.74 551.08" style="fill:#ff9f37"/>
<polygon points="350.7 549.26 367.39 534.27 352.4 517.57 365.84 518.29 380.83 534.99 364.14 549.99 350.7 549.26" style="fill:#ff9f37"/>
<polygon points="320.19 542.37 339.19 530.43 327.25 511.42 340.37 514.42 352.32 533.42 333.31 545.36 320.19 542.37" style="fill:#ff9f37"/>
<polygon points="291.23 526.8 312.73 520.38 306.31 498.87 318.15 505.27 324.58 526.78 303.07 533.2 291.23 526.8" style="fill:#ff9f37"/>
<polygon points="269.16 500.3 291.54 501.88 293.13 479.49 301.95 489.66 300.37 512.04 277.98 510.46 269.16 500.3" style="fill:#ff9f37"/>
<polygon points="258.61 467.28 279.01 476.64 288.37 456.24 293.05 468.86 283.69 489.26 263.29 479.9 258.61 467.28" style="fill:#ff9f37"/>
<polygon points="256.78 434.26 273.89 448.79 288.42 431.68 289.51 445.09 274.99 462.2 257.88 447.68 256.78 434.26" style="fill:#ff9f37"/>
<polygon points="257.6 403.58 272.57 420.3 289.29 405.33 288.55 418.77 271.83 433.74 256.86 417.02 257.6 403.58" style="fill:#ff9f37"/>
<polygon points="268.5 372.69 278.8 392.63 298.74 382.34 294.64 395.17 274.7 405.46 264.41 385.52 268.5 372.69" style="fill:#ff9f37"/>
<polygon points="283.15 345.36 290.41 366.6 311.64 359.34 305.71 371.43 284.48 378.69 277.22 357.45 283.15 345.36" style="fill:#ff9f37"/>
<polygon points="299.86 319.95 304.64 341.88 326.56 337.11 319.29 348.43 297.36 353.21 292.58 331.28 299.86 319.95" style="fill:#ff9f37"/>
<polygon points="318.05 295.84 320.49 318.14 342.8 315.71 334.37 326.2 312.06 328.64 309.62 306.33 318.05 295.84" style="fill:#ff9f37"/>
<polygon points="335.93 273.56 338.37 295.87 360.68 293.43 352.25 303.93 329.94 306.37 327.5 284.06 335.93 273.56" style="fill:#ff9f37"/>
<polygon points="357.47 252.29 357.52 274.73 379.97 274.68 370.47 284.22 348.03 284.28 347.97 261.83 357.47 252.29" style="fill:#ff9f37"/>
<polygon points="377.62 232.04 377.67 254.48 400.11 254.43 390.62 263.97 368.18 264.03 368.12 241.58 377.62 232.04" style="fill:#ff9f37"/>
<polygon points="401.96 213.8 399.5 236.11 421.81 238.57 411.31 246.99 389 244.53 391.46 222.22 401.96 213.8" style="fill:#ff9f37"/>
<polygon points="424.25 195.94 421.79 218.25 444.1 220.71 433.6 229.12 411.29 226.66 413.75 204.35 424.25 195.94" style="fill:#ff9f37"/>
<polygon points="450.94 180.97 445.8 202.82 467.65 207.96 456.2 215.04 434.36 209.9 439.5 188.06 450.94 180.97" style="fill:#ff9f37"/>
<polygon points="475.23 165.94 470.09 187.78 491.94 192.92 480.49 200.01 458.65 194.87 463.79 173.02 475.23 165.94" style="fill:#ff9f37"/>
<polygon points="503.73 154.4 495.79 175.39 516.77 183.34 504.5 188.87 483.51 180.92 491.46 159.93 503.73 154.4" style="fill:#ff9f37"/>
<polygon points="529.77 142.66 521.83 163.65 542.82 171.6 530.54 177.13 509.56 169.18 517.5 148.19 529.77 142.66" style="fill:#ff9f37"/>
<polygon points="559.49 134.49 548.71 154.17 568.38 164.96 555.46 168.73 535.78 157.94 546.57 138.26 559.49 134.49" style="fill:#ff9f37"/>
<polygon points="586.91 126.48 576.13 146.16 595.8 156.95 582.88 160.72 563.2 149.94 573.99 130.25 586.91 126.48" style="fill:#ff9f37"/>
<polygon points="617.28 121.27 603.77 139.19 621.68 152.71 608.36 154.57 590.44 141.06 603.95 123.14 617.28 121.27" style="fill:#ff9f37"/>
<polygon points="645.57 117.31 632.06 135.23 649.97 148.74 636.64 150.61 618.73 137.09 632.24 119.18 645.57 117.31" style="fill:#ff9f37"/>
<polygon points="673.86 113.34 660.35 131.26 678.26 144.78 664.93 146.65 647.01 133.13 660.53 115.21 673.86 113.34" style="fill:#ff9f37"/>
<polygon points="704.8 114.53 688.83 130.29 704.6 146.26 691.14 146.18 675.37 130.21 691.34 114.44 704.8 114.53" style="fill:#ff9f37"/>
<polygon points="733.37 114.71 717.4 130.48 733.17 146.45 719.71 146.36 703.94 130.39 719.91 114.62 733.37 114.71" style="fill:#ff9f37"/>
<polygon points="761.93 114.89 745.96 130.66 761.73 146.63 748.27 146.54 732.5 130.57 748.47 114.81 761.93 114.89" style="fill:#ff9f37"/>
</g>
<g id="Icons">
<image class="wirkungskette-icon wirkungskette-icon-1" width="400" height="400" transform="translate(651.17 31.67) scale(0.5)" xlink:href="http://velafrica-relaunch.drahtesel.ch/wp-content/themes/ginger-child/dist/img/content/1_Sammlung@2x.png"/>
<image class="wirkungskette-icon wirkungskette-icon-2" width="400" height="400" transform="translate(177.17 321.67) scale(0.5)" xlink:href="http://velafrica-relaunch.drahtesel.ch/wp-content/themes/ginger-child/dist/img/content/2_Integration@2x.png"/>
<image class="wirkungskette-icon wirkungskette-icon-3" width="400" height="400" transform="translate(560.17 531.67) scale(0.5)" xlink:href="http://velafrica-relaunch.drahtesel.ch/wp-content/themes/ginger-child/dist/img/content/3_Export@2x.png"/>
<image class="wirkungskette-icon wirkungskette-icon-4" width="400" height="400" transform="translate(675.17 898.67) scale(0.5)" xlink:href="http://velafrica-relaunch.drahtesel.ch/wp-content/themes/ginger-child/dist/img/content/4_Soziales%20Unternehmertum@2x.png"/>
<image class="wirkungskette-icon wirkungskette-icon-5" width="400" height="400" transform="translate(31.17 1098.67) scale(0.5)" xlink:href="http://velafrica-relaunch.drahtesel.ch/wp-content/themes/ginger-child/dist/img/content/5_Berufsbildung@2x.png"/>
<image class="wirkungskette-icon wirkungskette-icon-6" width="400" height="400" transform="translate(534.17 1447.67) scale(0.8)" xlink:href="http://velafrica-relaunch.drahtesel.ch/wp-content/themes/ginger-child/dist/img/content/6_Mobilitaet@2x.png"/>
</g>
</svg>
