<svg id="Ebene_1" data-name="Ebene 1" xmlns="http://www.w3.org/2000/svg" viewBox="0 0 16.53 12.76"><path d="M1.6,12.3v.46H.18A.18.18,0,0,1,0,12.47,1.26,1.26,0,0,1,.72,12l.71,0Z" style="fill:#fff"/><path d="M2.4,12.3v.46H3.82A.18.18,0,0,0,4,12.47,1.26,1.26,0,0,0,3.28,12l-.71,0Z" style="fill:#fff"/><polygon points="0.8 5.98 0.72 12.03 1.6 12.3 1.99 7.57 2.4 12.3 3.26 12.03 3.18 5.98 0.8 5.98" style="fill:#fff"/><path d="M.75,6.38H3.24V4.13H4l0-.66a.85.85,0,0,0-.6-.65l-1-.27L2,2.77l-.32-.21-1,.27a.86.86,0,0,0-.61.65l0,.65H.75Z" style="fill:#fff"/><path d="M2,0H2a.86.86,0,0,0-.86.85v.54H2.9V.87h0A.86.86,0,0,0,2,0" style="fill:#fff"/><path d="M2.45,1.93H1.56V2.6l.18.14a.47.47,0,0,0,.53,0l.18-.14Z" style="fill:#fff"/><path d="M1.57,1.38a.24.24,0,1,0-.24.23.23.23,0,0,0,.24-.23" style="fill:#fff"/><path d="M2.91,1.38a.24.24,0,1,0-.23.23.23.23,0,0,0,.23-.23" style="fill:#fff"/><path d="M2,2.35H2a.67.67,0,0,1-.67-.67V.94H2.67v.74A.67.67,0,0,1,2,2.35" style="fill:#fff"/><path d="M1.34.94A2.56,2.56,0,0,0,2.28.65a1.27,1.27,0,0,0,.39.29v.58h-1Z" style="fill:#fff"/><rect x="0.23" y="4.13" width="0.52" height="2.52" style="fill:#fff"/><path d="M.75,6.64H.23V7a1,1,0,0,0,.15.45.16.16,0,0,0,.2.07.14.14,0,0,0,.05-.17l0-.09a.19.19,0,0,1,0-.1A1.18,1.18,0,0,1,.56,7a.32.32,0,0,1,.07-.06l0,.3a.09.09,0,0,0,.08.08.09.09,0,0,0,.09-.09c0-.11,0-.28,0-.34a1.37,1.37,0,0,0-.07-.24" style="fill:#fff"/><rect x="3.24" y="4.13" width="0.52" height="2.52" style="fill:#fff"/><path d="M3.24,6.64h.52V7a1,1,0,0,1-.15.45.16.16,0,0,1-.2.07.14.14,0,0,1-.05-.17l0-.09a.36.36,0,0,0,0-.1,1.18,1.18,0,0,0,0-.16.32.32,0,0,0-.07-.06l0,.3a.09.09,0,0,1-.08.08.09.09,0,0,1-.09-.09c0-.11,0-.28,0-.34a.84.84,0,0,1,.06-.24" style="fill:#fff"/><path d="M14.25,12.08v.43H12.91a.17.17,0,0,1-.14-.27c.11-.14.51-.22.86-.34l.46-.09Z" style="fill:#fff"/><path d="M15,12.08v.43h1.34a.17.17,0,0,0,.14-.27c-.1-.14-.5-.22-.86-.34l-.46-.09Z" style="fill:#fff"/><polygon points="15.8 4.35 15.8 6.73 16.29 6.73 16.29 4 15.8 4.35" style="fill:#fff"/><path d="M15.8,6.73h.5v.33a.9.9,0,0,1-.15.42.15.15,0,0,1-.18.07.12.12,0,0,1-.05-.16l0-.08a.43.43,0,0,0,0-.11.88.88,0,0,0,0-.14S15.91,7,15.91,7l0,.28a.09.09,0,0,1-.08.08.08.08,0,0,1-.08-.09c0-.1,0-.26,0-.32a1.16,1.16,0,0,1,.06-.22" style="fill:#fff"/><path d="M15.76,6.23l-1,0h-.29l-1,0a6,6,0,0,0,0,1.8,26.8,26.8,0,0,1,0,3.88l.68.17.38-4.25L15,12.08l.68-.17a28.39,28.39,0,0,1,0-3.88,6,6,0,0,0,0-1.8" style="fill:#fff"/><polygon points="12.82 6.75 13.46 6.75 13.46 4.37 12.82 4.03 12.82 6.75" style="fill:#fff"/><path d="M13.48,4.67c0,.13.09.24.19.29a3.88,3.88,0,0,1-.18,1.26h2.26A3.72,3.72,0,0,1,15.58,5a.44.44,0,0,0,.19-.29,2.23,2.23,0,0,0,.09-.32L16.44,4l0-.29a.8.8,0,0,0-.57-.62l-.95-.26-.15.1h0l-.1.07L14.52,3h0l-.14-.1-.95.26a.81.81,0,0,0-.59.62v.6h.58a1.36,1.36,0,0,0,.08.32" style="fill:#fff"/><polygon points="15.8 4.37 15.8 6.75 16.44 6.75 16.44 4.03 15.8 4.37" style="fill:#fff"/><path d="M14.72.31C13.5.26,13.58,2,13.59,2.06h0s0,.61.33.78h1.47c.3-.17.32-.74.32-.74V1.59c0-1.39-1-1.28-1-1.28" style="fill:#fff"/><path d="M15.06,2.27h-.84V2.9l.13.47a.31.31,0,0,0,.29.23h0a.31.31,0,0,0,.29-.23l.13-.47Z" style="fill:#fff"/><path d="M14.23,1.75A.22.22,0,0,0,14,1.53a.22.22,0,0,0-.22.22A.22.22,0,0,0,14,2a.22.22,0,0,0,.23-.22" style="fill:#fff"/><path d="M15.5,1.75a.22.22,0,0,0-.23-.22.22.22,0,0,0-.22.22.22.22,0,0,0,.22.22.22.22,0,0,0,.23-.22" style="fill:#fff"/><path d="M14.22,2.67a.74.74,0,0,0,.84,0v-.4h-.84Z" style="fill:#fff"/><path d="M15.27,1.55V2A.63.63,0,1,1,14,2V1.39l.15.14.13-.29.13.3.15-.27.15.3.16-.3.17.25.13-.19.08.22Z" style="fill:#fff"/><path d="M10.05,12.1v.43H8.71a.17.17,0,0,1-.14-.27c.1-.14.5-.23.86-.34l.45-.09Z" style="fill:#fff"/><path d="M10.81,12.1v.43h1.34a.17.17,0,0,0,.14-.27,2.4,2.4,0,0,0-.86-.34L11,11.83Z" style="fill:#fff"/><path d="M11.56,6.25l-1,0h-.29l-1,0a6.41,6.41,0,0,0,0,1.8,27.12,27.12,0,0,1,0,3.87l.67.18.38-4.25.38,4.25.67-.18a28.24,28.24,0,0,1,0-3.87,6.22,6.22,0,0,0,.05-1.8" style="fill:#fff"/><path d="M8.76,4s0-.73.37-.86L9.72,4l-.47.38Z" style="fill:#fff"/><path d="M12.1,4s0-.73-.36-.86l-.6.82.47.38Z" style="fill:#fff"/><path d="M10.56.29h-.21A.92.92,0,0,0,10,.35c-.44.19-.55.69-.66,1.37s.71,1.14.71,1.14l.38-.7.39.7s.83-.38.71-1.14S11.33.54,10.89.35a.92.92,0,0,0-.33-.06" style="fill:#fff"/><polygon points="8.76 6.76 9.25 6.76 9.25 4.38 8.76 4.04 8.76 6.76" style="fill:#fff"/><path d="M9.25,6.76H8.76v.33a1,1,0,0,0,.15.42.15.15,0,0,0,.18.07.13.13,0,0,0,.05-.16l0-.08a.45.45,0,0,1,0-.11.74.74,0,0,1,0-.15s.06,0,.06,0l0,.28a.09.09,0,0,0,.08.08.09.09,0,0,0,.08-.09c0-.1,0-.26,0-.32a1.14,1.14,0,0,0-.07-.22" style="fill:#fff"/><polygon points="11.61 4.38 11.61 6.76 12.1 6.76 12.1 4.03 11.61 4.38" style="fill:#fff"/><path d="M11.61,6.76h.49v.33a.84.84,0,0,1-.14.42.16.16,0,0,1-.19.07.14.14,0,0,1,0-.16l0-.08a.43.43,0,0,0,0-.11.92.92,0,0,0,0-.15s-.07,0-.07,0l0,.28a.09.09,0,0,1-.08.08.08.08,0,0,1-.08-.09,3,3,0,0,1,0-.32.71.71,0,0,1,.06-.22" style="fill:#fff"/><path d="M11.39,5a.33.33,0,0,0,.12-.14H9.35A.35.35,0,0,0,9.48,5,3.88,3.88,0,0,1,9.3,6.25h2.25A3.86,3.86,0,0,1,11.39,5" style="fill:#fff"/><path d="M10.86,2.29H10v.64l.17.13a.42.42,0,0,0,.5,0l.17-.13Z" style="fill:#fff"/><path d="M10,1.78A.23.23,0,1,0,9.81,2,.22.22,0,0,0,10,1.78" style="fill:#fff"/><path d="M11.3,1.78a.22.22,0,0,0-.22-.23.22.22,0,0,0-.22.23.22.22,0,0,0,.22.22.22.22,0,0,0,.22-.22" style="fill:#fff"/><path d="M10,2.7a.74.74,0,0,0,.84,0V2.3H10Z" style="fill:#fff"/><path d="M10.26,1a2.63,2.63,0,0,0-.45.33v.7a.63.63,0,1,0,1.26,0v-.7A1.22,1.22,0,0,1,10.26,1" style="fill:#fff"/><path d="M11.78,3.2l-.13-.05-.24-.07H9.51l-.3.08-.08,0c.22.31.07,1.2.07,1.2a2.23,2.23,0,0,0,.09.32A.44.44,0,0,0,9.46,5h1.95a.49.49,0,0,0,.17-.27,2.23,2.23,0,0,0,.09-.32,2.45,2.45,0,0,1,.11-1.18" style="fill:#fff"/><path d="M10.56,3h0l-.11.07L10.33,3h0l-.15-.1-.65.18a1.08,1.08,0,0,0,1,.6,1.06,1.06,0,0,0,.94-.58l-.71-.2Z" style="fill:#fff"/><path d="M6.09,12v.44H4.75a.18.18,0,0,1-.14-.28,1.34,1.34,0,0,1,.65-.41l.67,0Z" style="fill:#fff"/><path d="M6.85,12v.44H8.19a.17.17,0,0,0,.14-.28,1.24,1.24,0,0,0-.65-.41l-.66,0Z" style="fill:#fff"/><polygon points="5.34 6.03 5.26 11.76 6.09 12.02 6.46 7.54 6.85 12.02 7.67 11.76 7.59 6.03 5.34 6.03" style="fill:#fff"/><path d="M5.29,6.42H7.65V4.28h.66l0-.62a.79.79,0,0,0-.57-.61l-1-.27-.3.13-.3-.13-1,.27a.82.82,0,0,0-.58.61l0,.61h.68Z" style="fill:#fff"/><rect x="5.29" y="4.3" width="2.35" height="0.65" style="fill:#fff"/><path d="M6.51.38H6.45a.81.81,0,0,0-.82.8v.51H7.32V1.18a.8.8,0,0,0-.81-.8" style="fill:#fff"/><path d="M6.9,2.2H6.06v.63h0a.72.72,0,0,0,.84,0h0Z" style="fill:#fff"/><path d="M6.06,1.68a.22.22,0,0,0-.22-.22.22.22,0,0,0,0,.44.22.22,0,0,0,.22-.22" style="fill:#fff"/><path d="M7.33,1.68a.22.22,0,0,0-.22-.22.22.22,0,1,0,0,.44.22.22,0,0,0,.22-.22" style="fill:#fff"/><rect x="4.8" y="4.28" width="0.49" height="2.39" style="fill:#fff"/><path d="M5.29,6.66H4.8V7a1,1,0,0,0,.14.43.16.16,0,0,0,.19.06.14.14,0,0,0,0-.16l0-.08a.36.36,0,0,1,0-.1c0-.06,0-.14,0-.15a.32.32,0,0,1,.07-.06l0,.28s0,.08.08.08a.09.09,0,0,0,.09-.09c0-.1,0-.26,0-.32a.71.71,0,0,0-.06-.22" style="fill:#fff"/><rect x="7.65" y="4.28" width="0.49" height="2.39" style="fill:#fff"/><path d="M7.65,6.66h.49V7A1,1,0,0,1,8,7.42a.16.16,0,0,1-.19.06.14.14,0,0,1,0-.16l0-.08a.19.19,0,0,0,0-.1.71.71,0,0,0,0-.15s-.06-.06-.06-.06l0,.28a.09.09,0,0,1-.17,0c0-.1,0-.26,0-.32a.71.71,0,0,1,.06-.22" style="fill:#fff"/><path d="M7,1.19l0,.14a1.24,1.24,0,0,1-.22-.15l0,.13a1.53,1.53,0,0,1-.32-.14l0,.11A1.5,1.5,0,0,1,6.12,1a2.76,2.76,0,0,1-.27.33V2A.63.63,0,1,0,7.11,2V1.27Z" style="fill:#fff"/><path d="M7.14,1.17H7.05C7,1.4,7,2,7,2a.55.55,0,0,1-.09.22C6.89,2.1,6.83,2,6.78,2H6.2c-.06,0-.12.14-.17.27A.55.55,0,0,1,5.91,2s0-.7,0-.93l-.08.31V2A.67.67,0,0,0,6,2.38H6a.68.68,0,0,0,.49.22h0A.62.62,0,0,0,7,2.38H7A.64.64,0,0,0,7.14,2Z" style="fill:#fff"/><path d="M6.82,2.34l-.08.05a.92.92,0,0,0-.26-.05.92.92,0,0,0-.26.05s-.07,0-.08-.05,0-.12.05-.18a.16.16,0,0,1,.14-.08h.3a.14.14,0,0,1,.13.08c0,.06.08.15.06.18" style="fill:#fff"/><path d="M13.3,6.76h-.49v.33a1,1,0,0,0,.15.42.15.15,0,0,0,.18.07.13.13,0,0,0,0-.16l0-.08a.45.45,0,0,1,0-.11.74.74,0,0,1,0-.15s.06,0,.06,0l0,.28a.09.09,0,0,0,.08.08.09.09,0,0,0,.08-.09c0-.1,0-.26,0-.32a1.14,1.14,0,0,0-.07-.22" style="fill:#fff"/></svg>