<svg id="Ebene_1" data-name="Ebene 1" xmlns="http://www.w3.org/2000/svg" viewBox="0 0 20.34 12.76"><line x1="12.54" y1="9.23" x2="15.34" y2="8.97" style="fill:#fff;stroke:#fff;stroke-width:0.5659999847412109px"/><path d="M12.41,8.7a4,4,0,0,1,1.9-3.34l-.73-1.6C13,5.43,12.32,7.06,11.7,8.7Zm.94,0h2.47c-.38-.83-.75-1.64-1.11-2.45a2.93,2.93,0,0,0-1.36,2.45m-.59-5.24H6.12l4.73,5.14,1.91-5.14m2.72,2.42s0,.06,0,.09c.31.7.63,1.4.94,2.09q.21.45.39.9c.12.31,0,.52-.35.56l-.38,0-2.44,0h-.22a3,3,0,1,0,2-3.64M4.4,5.84a3,3,0,1,0,2.48,3.7A2.93,2.93,0,0,0,5.23,6.1l0,.09c-.17.53-.33,1.06-.5,1.59-.12.38-.25.75-.39,1.12a.32.32,0,0,1-.43.23.37.37,0,0,1-.31-.38,1.32,1.32,0,0,1,0-.34L4,7.08,4.4,5.84M5.77,4.37c-.08.26-.16.53-.25.81a3.9,3.9,0,0,1,2.33,3,3.69,3.69,0,0,1-.51,2.63,3.93,3.93,0,0,1-7.17-3A4,4,0,0,1,4.69,4.93c0-.14.09-.29.14-.44.3-1,.59-1.92.91-2.88A3.94,3.94,0,0,1,6.08.89,1,1,0,0,1,6.7.44,8.86,8.86,0,0,1,8.56.34v.79h-1c-.75,0-.89.11-1.1.84-.05.2-.11.41-.17.64h6.62a.23.23,0,0,0,.26-.18c.05-.19.12-.37.19-.57L12.17,1.6a2.1,2.1,0,0,1-.42-.15.22.22,0,0,1-.08-.2.22.22,0,0,1,.15-.13h3.3l.05,0v.76c-.25,0-.5,0-.75,0s-.15.05-.2.14a1.12,1.12,0,0,0,0,1.17c.28.53.5,1.1.75,1.65,0,.05.05.1.07.14.3-.06.59-.13.88-.16a3.91,3.91,0,1,1-3.43,4.84c0-.13-.08-.17-.2-.17H11.09A1.3,1.3,0,0,1,10,9.07C9.53,8.49,9,7.9,8.51,7.33L5.86,4.42a.25.25,0,0,1,0-.07l-.05,0" style="fill:#fff"/><circle cx="3.97" cy="8.78" r="3.62" transform="translate(-1.91 1.15) rotate(-13.28)" style="fill:none;stroke:#fff;stroke-width:0.7009999752044678px"/><circle cx="16.37" cy="8.74" r="3.62" transform="translate(-1.36 3.25) rotate(-10.9)" style="fill:none;stroke:#fff;stroke-width:0.7009999752044678px"/></svg>