<?xml version="1.0" encoding="utf-8"?>
<!-- Generator: Adobe Illustrator 22.1.0, SVG Export Plug-In . SVG Version: 6.00 Build 0)  -->
<svg version="1.1" id="glunz-logo" xmlns="http://www.w3.org/2000/svg" xmlns:xlink="http://www.w3.org/1999/xlink" x="0px" y="0px"
	 viewBox="0 0 230 104" style="enable-background:new 0 0 230 104;" xml:space="preserve">
<style type="text/css">
	.st0{fill:#FFFFFF;}
</style>
<g>
	<rect y="0" width="230" height="104"/>
	<path class="st0" d="M37,79.9h-2.3c-6.5,0-11.8-5.3-11.9-11.8c0,0,0,0,0,0v-30c0.1-6.5,5.4-11.7,11.9-11.7H37
		c6.5,0,11.8,5.2,11.9,11.7c0,0,0,0,0,0v1.6c0,0.5-0.4,0.8-0.9,0.8h-3.1c-0.4,0-0.8-0.4-0.8-0.8v-1.6c0-3.9-3.2-7.1-7.1-7.1h-2.3
		c-3.9,0-7,3.2-7.1,7.1v30c0,3.9,3.2,7.1,7.1,7.1H37c3.9,0,7.1-3.2,7.1-7.1V55.4h-7.8c-0.5,0-0.8-0.3-0.9-0.8v-3.2
		c0-0.5,0.4-0.8,0.9-0.8H48c0.5,0,0.8,0.3,0.9,0.8v16.5C48.9,74.6,43.6,79.9,37,79.9C37,79.9,37,79.9,37,79.9"/>
	<path class="st0" d="M87.6,79.1h-22c-0.4,0-0.8-0.4-0.8-0.8V27.9c0-0.4,0.3-0.7,0.8-0.7c0,0,0,0,0,0h3.1c0.4,0,0.8,0.3,0.9,0.7
		v46.5h18c0.4,0,0.8,0.3,0.8,0.7c0,0,0,0,0,0v3.1C88.4,78.7,88,79.1,87.6,79.1"/>
	<path class="st0" d="M113.5,79.9h-1.6c-6.5,0-11.8-5.3-11.8-11.8V27.9c0-0.4,0.3-0.7,0.8-0.7c0,0,0,0,0,0h3.1
		c0.4,0,0.8,0.3,0.8,0.7c0,0,0,0,0,0v40.2c0,3.9,3.2,7,7.1,7.1h1.6c3.9,0,7-3.2,7.1-7.1V27.9c0-0.4,0.3-0.7,0.8-0.7c0,0,0,0,0,0h3.1
		c0.4,0,0.8,0.3,0.8,0.7c0,0,0,0,0,0v40.2C125.3,74.6,120,79.9,113.5,79.9L113.5,79.9"/>
	<path class="st0" d="M168.3,79.1h-6.8c-0.3-0.1-0.6-0.3-0.7-0.5l-14.3-45.4v45.1c0,0.4-0.3,0.7-0.7,0.8h-3.2
		c-0.4,0-0.8-0.4-0.8-0.8V27.9c0-0.4,0.4-0.7,0.8-0.7h6.8c0.3,0.1,0.5,0.2,0.7,0.4L164.4,73V27.9c0-0.4,0.3-0.7,0.7-0.7h3.2
		c0.4,0,0.8,0.3,0.8,0.7v50.4C169.1,78.7,168.8,79.1,168.3,79.1"/>
	<path class="st0" d="M206.4,79.1h-24.4c-0.4,0-0.8-0.4-0.8-0.8v-2.8c-0.1-0.7,0.1-1.4,0.5-2l19.4-41.7h-18.2
		c-0.4,0-0.8-0.4-0.8-0.8v-3.1c0-0.4,0.4-0.7,0.8-0.7h22.8c0.4,0,0.8,0.3,0.8,0.7c0,0,0,0,0,0V31c0,0.6-0.2,1.1-0.4,1.6l-19.4,41.8
		h19.9c0.4,0,0.7,0.3,0.7,0.7c0,0,0,0,0,0.1v3.1C207.2,78.7,206.9,79,206.4,79.1C206.5,79.1,206.5,79.1,206.4,79.1"/>
</g>
</svg>
